# xmcd
#
# Track frame offsets:
#	150
#	14210
#	24250
#	40367
#	59580
#	70850
#	88635
#	101807
#	121115
#	139842
#	151530
#	160730
#	174120
#	188072
#	199422
#	212165
#	223392
#	242200
#	252825
#	262417
#	272595
#	283307
#	293555
#
# Disc length: 4089 seconds
#
# Revision: 1
# Processed by: cddbd v1.5.1PL0 Copyright (c) Steve Scherf et al.
# Submitted via: audiograbber 1.83.01
#
DISCID=620ff717
DTITLE=Various Artist - Country Magic [CD4]
DYEAR=1900
DGENRE=Miscellaneous
TTITLE0=Marty Robbins - Love Me Tender
TTITLE1=Jim Reeves - A Fool Such As I
TTITLE2=Kenny Rogers - Green, Green Grass Of Home
TTITLE3=Dolly Parton - Boulder To Birmingham
TTITLE4=Tom T Hall - Ravishing Ruby
TTITLE5=Skeeter Davis - You've Got A Friend
TTITLE6=Bobbie Gentry - I'll Never Fall In Love Again
TTITLE7=Don Williams - Good Ole Boys Like Me
TTITLE8=Johnny Cash - Sunday Morning Coming Down
TTITLE9=Patsy Cline - Sweet Dreams
TTITLE10=Tennessee Ernie Ford - It's All A Game
TTITLE11=Johnny Cash - Don't Think Twice, It's Alright
TTITLE12=Dolly Parton - Coat Of Many Colours
TTITLE13=Charley Pride - Help Me Make It Through The Night
TTITLE14=Loretta Lynn - Behind Closed Doors
TTITLE15=Tom T Hall - P.S. I Love You
TTITLE16=Willie Nelson - Until It's Time For You To Go
TTITLE17=Loretta Lynn and Conway Twitty - Never Ending Song Of Love
TTITLE18=Bobbie Gentry - Son Of A Preacher Man
TTITLE19=Charlie Rich - I Don't See Me In Your Eyes Anymore
TTITLE20=Glen Campbell - Bowling Green
TTITLE21=Dave Dudley - Six Days On The Road
TTITLE22=Tennessee Ernie Ford - The Night They Drove Old Dixie Down
EXTD=Country Magic\nReaders Digest
EXTT0=
EXTT1=
EXTT2=
EXTT3=
EXTT4=
EXTT5=
EXTT6=
EXTT7=
EXTT8=
EXTT9=
EXTT10=
EXTT11=
EXTT12=
EXTT13=
EXTT14=
EXTT15=
EXTT16=
EXTT17=
EXTT18=
EXTT19=
EXTT20=
EXTT21=
EXTT22=
PLAYORDER=
